<svg width="133" height="50" viewBox="0 0 133 50" fill="none" xmlns="http://www.w3.org/2000/svg">
<path d="M16.52 4.92002C20.808 4.92002 24.504 6.28002 27.608 9.00002L23.624 13.176C22.44 12.28 21.336 11.64 20.312 11.256C19.32 10.84 18.168 10.632 16.856 10.632C14.392 10.632 12.424 11.608 10.952 13.56C9.47999 15.48 8.74399 18.408 8.74399 22.344C8.74399 26.6 9.30398 29.624 10.424 31.416C11.544 33.176 13.288 34.056 15.656 34.056C17.32 34.056 18.824 33.688 20.168 32.952V25.416H15.848L15.08 19.848H27.8V36.312C26.072 37.432 24.168 38.296 22.088 38.904C20.008 39.512 17.928 39.816 15.848 39.816C10.792 39.816 6.98398 38.344 4.42398 35.4C1.86398 32.424 0.583984 28.072 0.583984 22.344C0.583984 18.696 1.27198 15.56 2.64798 12.936C4.05598 10.312 5.95998 8.32802 8.35998 6.98402C10.792 5.60802 13.512 4.92002 16.52 4.92002Z" fill="#141414"/>
<path d="M39.6815 39.816C37.4735 39.816 35.7455 39.192 34.4975 37.944C33.2815 36.664 32.6735 34.856 32.6735 32.52V3.38402L40.2575 2.56802V32.232C40.2575 33.288 40.6895 33.816 41.5535 33.816C42.0015 33.816 42.4175 33.736 42.8015 33.576L44.2895 38.952C42.9135 39.528 41.3775 39.816 39.6815 39.816Z" fill="#141414"/>
<path d="M69.1531 25.752C69.1531 26.808 69.1051 27.72 69.0091 28.488H53.2171C53.4731 30.632 54.0811 32.136 55.0411 33C56.0011 33.864 57.3291 34.296 59.0251 34.296C60.0491 34.296 61.0411 34.12 62.0011 33.768C62.9611 33.384 64.0011 32.808 65.1211 32.04L68.2411 36.264C65.2651 38.632 61.9531 39.816 58.3051 39.816C54.1771 39.816 51.0091 38.6 48.8011 36.168C46.5931 33.736 45.4891 30.472 45.4891 26.376C45.4891 23.784 45.9531 21.464 46.8811 19.416C47.8091 17.336 49.1691 15.704 50.9611 14.52C52.7531 13.304 54.8971 12.696 57.3931 12.696C61.0731 12.696 63.9531 13.848 66.0331 16.152C68.1131 18.456 69.1531 21.656 69.1531 25.752ZM61.7131 23.592C61.6491 19.688 60.2731 17.736 57.5851 17.736C56.2731 17.736 55.2491 18.216 54.5131 19.176C53.8091 20.136 53.3771 21.72 53.2171 23.928H61.7131V23.592Z" fill="#141414"/>
<path d="M80.9975 13.512V39H73.4135V13.512H80.9975ZM77.1575 0.0720215C78.4695 0.0720215 79.5415 0.488022 80.3735 1.32002C81.2375 2.12002 81.6695 3.14402 81.6695 4.39202C81.6695 5.64002 81.2375 6.68002 80.3735 7.51202C79.5415 8.31202 78.4695 8.71202 77.1575 8.71202C75.8455 8.71202 74.7735 8.31202 73.9415 7.51202C73.1095 6.68002 72.6935 5.64002 72.6935 4.39202C72.6935 3.14402 73.1095 2.12002 73.9415 1.32002C74.7735 0.488022 75.8455 0.0720215 77.1575 0.0720215Z" fill="#141414"/>
<path d="M98.0004 12.696C99.7604 12.696 101.344 12.952 102.752 13.464C104.16 13.976 105.488 14.76 106.736 15.816L103.472 20.328C101.872 19.112 100.256 18.504 98.6244 18.504C96.9284 18.504 95.6484 19.128 94.7844 20.376C93.9204 21.624 93.4884 23.64 93.4884 26.424C93.4884 29.112 93.9204 31.016 94.7844 32.136C95.6484 33.256 96.8964 33.816 98.5284 33.816C99.3924 33.816 100.176 33.688 100.88 33.432C101.584 33.144 102.432 32.696 103.424 32.088L106.736 36.792C104.208 38.808 101.344 39.816 98.1444 39.816C95.5524 39.816 93.3124 39.272 91.4244 38.184C89.5364 37.064 88.0804 35.512 87.0564 33.528C86.0324 31.512 85.5204 29.16 85.5204 26.472C85.5204 23.784 86.0324 21.4 87.0564 19.32C88.0804 17.24 89.5364 15.624 91.4244 14.472C93.3124 13.288 95.5044 12.696 98.0004 12.696Z" fill="#141414"/>
<path d="M123.993 39.048C122.969 42.344 121.289 44.872 118.953 46.632C116.649 48.424 113.545 49.432 109.641 49.656L108.825 44.328C111.257 44.008 113.049 43.464 114.201 42.696C115.385 41.928 116.329 40.696 117.033 39H114.441L106.665 13.512H114.729L119.289 34.152L124.281 13.512H132.105L123.993 39.048Z" fill="#141414"/>
</svg>
